<svg width="32" height="26" viewBox="0 0 32 26" fill="none" xmlns="http://www.w3.org/2000/svg">
<g id="fa6-solid:handshake-simple" clip-path="url(#clip0_67_209)">
<path id="Vector" d="M16.17 4.32656L11.33 8.30781C10.525 8.96797 10.37 10.1562 10.98 11.0043C11.625 11.9082 12.88 12.0859 13.745 11.4004L18.71 7.48008C19.06 7.20586 19.56 7.2668 19.835 7.62227C20.11 7.97773 20.045 8.48555 19.695 8.76484L18.65 9.5875L27.51 17.875H29.6C30.925 17.875 32 16.7832 32 15.4375V8.9375C32 7.5918 30.925 6.5 29.6 6.5H25.565L25.37 6.37305L21.74 4.01172C20.975 3.51406 20.08 3.25 19.17 3.25C18.08 3.25 17.02 3.63086 16.17 4.32656ZM17.31 10.6438L14.725 12.6852C13.15 13.9344 10.865 13.6094 9.685 11.9641C8.575 10.4152 8.855 8.25195 10.32 7.04844L14.48 3.63086C13.9 3.38203 13.275 3.25508 12.64 3.25508C11.7 3.25 10.785 3.53438 10 4.0625L6.4 6.5H2.4C1.075 6.5 0 7.5918 0 8.9375V15.4375C0 16.7832 1.075 17.875 2.4 17.875H7.81L12.38 22.1102C13.36 23.0191 14.875 22.948 15.77 21.9527C16.045 21.643 16.23 21.2824 16.325 20.9066L17.175 21.6988C18.15 22.6078 19.67 22.5418 20.565 21.5516C20.79 21.3027 20.955 21.0133 21.06 20.7137C22.03 21.3738 23.35 21.2367 24.165 20.3328C25.06 19.3426 24.995 17.7988 24.02 16.8898L17.31 10.6438Z" fill="white"/>
</g>
<defs>
<clipPath id="clip0_67_209">
<rect width="32" height="26" fill="white"/>
</clipPath>
</defs>
</svg>
