<svg width="30" height="24" viewBox="0 0 30 24" fill="none" xmlns="http://www.w3.org/2000/svg">
<g id="fa-solid:hands" clip-path="url(#clip0_67_238)">
<path id="Vector" d="M9.6 10.8C9.10313 10.1391 8.16094 10.0031 7.5 10.5C6.83906 10.9969 6.70313 11.9391 7.2 12.6L8.98594 14.9813C9.21094 15.2813 9.17812 15.6984 8.91562 15.9609L8.31562 16.5609C8.00156 16.875 7.49063 16.8516 7.20938 16.5094L3 11.4562V4.5C3 3.67031 2.32969 3 1.5 3C0.670312 3 0 3.67031 0 4.5V14.7375C0 15.2484 0.173437 15.7453 0.492188 16.1437L5.37187 22.4391C5.60625 22.7438 5.76562 23.0906 5.85938 23.4562C5.94375 23.7797 6.23906 24 6.57656 24H12.75C13.1625 24 13.5 23.6625 13.5 23.25V18C13.5 16.7016 13.0781 15.4406 12.3 14.4L9.6 10.8ZM28.5 3C27.6703 3 27 3.67031 27 4.5V11.4562L22.7906 16.5094C22.5094 16.8469 21.9938 16.8703 21.6844 16.5609L21.0844 15.9609C20.8219 15.6984 20.7891 15.2813 21.0141 14.9813L22.8 12.6C23.2969 11.9391 23.1609 10.9969 22.5 10.5C21.8391 10.0031 20.8969 10.1391 20.4 10.8L17.7 14.4C16.9219 15.4406 16.5 16.7016 16.5 18V23.25C16.5 23.6625 16.8375 24 17.25 24H23.4234C23.7563 24 24.0563 23.7797 24.1406 23.4562C24.2344 23.0906 24.3938 22.7438 24.6281 22.4391L29.5078 16.1437C29.8266 15.7453 30 15.2484 30 14.7375V4.5C30 3.67031 29.3297 3 28.5 3Z" fill="white"/>
<g id="Group">
<path id="Vector_2" d="M11.3 4H19.7M11.3 7H19.7M11 5.5C11 6.09095 11.1164 6.67611 11.3425 7.22208C11.5687 7.76804 11.9002 8.26412 12.318 8.68198C12.7359 9.09984 13.232 9.43131 13.7779 9.65746C14.3239 9.8836 14.9091 10 15.5 10C16.0909 10 16.6761 9.8836 17.2221 9.65746C17.768 9.43131 18.2641 9.09984 18.682 8.68198C19.0998 8.26412 19.4313 7.76804 19.6575 7.22208C19.8836 6.67611 20 6.09095 20 5.5C20 4.30653 19.5259 3.16193 18.682 2.31802C17.8381 1.47411 16.6935 1 15.5 1C14.3065 1 13.1619 1.47411 12.318 2.31802C11.4741 3.16193 11 4.30653 11 5.5Z" stroke="white" stroke-linecap="round" stroke-linejoin="round"/>
<path id="Vector_3" d="M15.2498 1C14.4075 2.34981 13.9609 3.90893 13.9609 5.5C13.9609 7.09107 14.4075 8.65019 15.2498 10M15.7498 1C16.5922 2.34981 17.0387 3.90893 17.0387 5.5C17.0387 7.09107 16.5922 8.65019 15.7498 10" stroke="white" stroke-linecap="round" stroke-linejoin="round"/>
</g>
</g>
<defs>
<clipPath id="clip0_67_238">
<rect width="30" height="24" fill="white"/>
</clipPath>
</defs>
</svg>
