<svg width="20" height="20" viewBox="0 0 20 20" fill="none" xmlns="http://www.w3.org/2000/svg">
<g id="icon-park-solid:notes">
<g id="Mask group">
<mask id="mask0_51_59" style="mask-type:luminance" maskUnits="userSpaceOnUse" x="2" y="0" width="16" height="20">
<g id="Group">
<g id="Group_2">
<path id="Vector" d="M3.33398 2.50008C3.33398 2.27907 3.42178 2.06711 3.57806 1.91083C3.73434 1.75455 3.9463 1.66675 4.16732 1.66675H12.5007L16.6673 5.83341V17.5001C16.6673 17.7211 16.5795 17.9331 16.4232 18.0893C16.267 18.2456 16.055 18.3334 15.834 18.3334H4.16732C3.9463 18.3334 3.73434 18.2456 3.57806 18.0893C3.42178 17.9331 3.33398 17.7211 3.33398 17.5001V2.50008Z" fill="white" stroke="white" stroke-width="1.66667" stroke-linejoin="round"/>
<path id="Vector_2" d="M6.66797 8.3335H13.3346M6.66797 11.6668H13.3346" stroke="black" stroke-width="1.66667" stroke-linecap="round" stroke-linejoin="round"/>
</g>
</g>
</mask>
<g mask="url(#mask0_51_59)">
<path id="Vector_3" d="M0 0H20V20H0V0Z" fill="white"/>
</g>
</g>
</g>
</svg>
