<svg
            xmlns="http://www.w3.org/2000/svg"
            width="48"
            height="48"
            viewBox="0 0 48 48"
            fill="none"
            class="w-6 h-6"
          >
            <g clip-path="url(#clip0_51_257)">
              <path
                d="M9.67188 33.7719V33.7074C9.74772 33.7207 9.82528 33.7207 9.90113 33.7074C9.95964 33.6888 10.0101 33.6509 10.0444 33.6C10.1245 33.4612 10.1596 33.301 10.1447 33.1414V31.4292C10.1594 31.2737 10.1296 31.1171 10.0587 30.9779C10.0142 30.9313 9.9609 30.894 9.90187 30.8682C9.84284 30.8424 9.77928 30.8285 9.71486 30.8274V30.7629H10.5244L12.3513 32.9552V31.4292C12.3688 31.2704 12.3362 31.1101 12.2581 30.9707C12.1492 30.8755 12.0087 30.8244 11.8641 30.8274V30.7629H12.8958V30.8059C12.8306 30.8051 12.766 30.8174 12.7057 30.842C12.6454 30.8666 12.5907 30.9031 12.5447 30.9492C12.4801 31.0929 12.453 31.2507 12.4659 31.4077V33.7432C12.4659 33.7432 12.4301 33.7432 12.4301 33.7003L12.3011 33.6716L10.245 31.1068V33.1128C10.2245 33.2834 10.2707 33.4554 10.374 33.5928C10.4185 33.6341 10.4727 33.6637 10.5316 33.6788C10.6125 33.6879 10.6942 33.6879 10.7752 33.6788V33.7432L9.67188 33.7719Z"
                fill="#21409A"
              />
              <path
                d="M12.7881 33.7719V33.7074C12.8933 33.7003 12.9936 33.6602 13.0747 33.5928C13.1948 33.4487 13.2872 33.2835 13.3469 33.1056L14.2854 30.8059H14.3284V30.8561L15.2812 33.1414C15.3457 33.3187 15.4402 33.4835 15.5606 33.6286C15.6453 33.6946 15.7474 33.7344 15.8544 33.7432V33.8077H14.5935V33.7432C14.8442 33.7432 14.966 33.6501 14.966 33.5283C14.9524 33.3965 14.916 33.268 14.8585 33.1486L14.6436 32.6184H13.655L13.4472 33.1486C13.3942 33.2642 13.3603 33.3876 13.3469 33.514C13.3461 33.5481 13.3552 33.5818 13.373 33.611C13.3907 33.6402 13.4165 33.6637 13.4472 33.6787C13.5371 33.7274 13.6389 33.7497 13.7409 33.7432V33.8077L12.7881 33.7719ZM14.1493 31.3719L13.6908 32.4895H14.615L14.1493 31.3719Z"
                fill="#21409A"
              />
              <path
                d="M15.8184 30.8059V30.7415H17.0864V30.8059C17.0157 30.7897 16.9422 30.7897 16.8715 30.8059C16.818 30.8267 16.771 30.8613 16.7354 30.9062C16.6671 31.0488 16.6398 31.2076 16.6566 31.3647V32.7259C16.6566 32.9194 16.6566 33.0483 16.6566 33.1128C16.6821 33.2376 16.7474 33.3508 16.8428 33.4352C17.0283 33.5796 17.2602 33.651 17.4948 33.6358C17.6176 33.642 17.7404 33.6237 17.856 33.5819C17.9717 33.54 18.0778 33.4756 18.1682 33.3922C18.3034 33.2195 18.3675 33.0016 18.3473 32.7832V31.3504C18.3657 31.1829 18.3279 31.0141 18.2399 30.8704C18.2027 30.8338 18.159 30.8046 18.1109 30.7844C18.0433 30.7804 17.9755 30.7877 17.9103 30.8059V30.7415H18.8416V30.8059C18.7836 30.8059 18.7263 30.8179 18.6732 30.8414C18.6201 30.8648 18.5726 30.8991 18.5336 30.9421C18.469 31.0858 18.4418 31.2435 18.4548 31.4006V32.8334C18.4727 33.0639 18.4008 33.2923 18.2542 33.471C18.1352 33.581 17.9951 33.6656 17.8424 33.7198C17.6896 33.774 17.5275 33.7966 17.3658 33.7862C17.0732 33.7985 16.783 33.7291 16.5276 33.5856C16.4189 33.5307 16.3327 33.4394 16.284 33.3277C16.2257 33.1673 16.2013 32.9966 16.2124 32.8262V31.3934C16.2261 31.2393 16.2015 31.0843 16.1407 30.9421C16.1001 30.8973 16.0503 30.8619 15.9946 30.8384C15.9389 30.8149 15.8788 30.8038 15.8184 30.8059Z"
                fill="#21409A"
              />
              <path
                d="M18.8916 31.5868L18.9704 30.7629H21.442L21.5137 31.637H21.4922C21.4623 31.4998 21.4141 31.3673 21.3489 31.2429C21.3026 31.157 21.2392 31.0814 21.1626 31.0209C21.0146 30.9033 20.8283 30.8446 20.6397 30.8561H20.4677V33.1056C20.4482 33.2774 20.4915 33.4504 20.5895 33.5928C20.6307 33.6312 20.6795 33.6605 20.7328 33.6788C20.8042 33.6877 20.8764 33.6877 20.9477 33.6788V33.7432H19.522V33.6788C19.5864 33.6843 19.6512 33.6771 19.7127 33.6574C19.7742 33.6377 19.8311 33.606 19.8803 33.5641C19.9758 33.4208 20.0165 33.2479 19.9949 33.077V30.8561H19.7871C19.6991 30.8457 19.6101 30.8457 19.522 30.8561C19.4359 30.8748 19.3566 30.917 19.2928 30.9779C19.2298 31.0422 19.1723 31.1117 19.1209 31.1856C19.0422 31.3005 18.9862 31.4294 18.9561 31.5653L18.8916 31.5868Z"
                fill="#21409A"
              />
              <path
                d="M21.5566 33.7719V33.7074C21.6208 33.7162 21.6859 33.7162 21.7501 33.7074C21.7986 33.6848 21.8423 33.6532 21.879 33.6143C21.9746 33.471 22.0153 33.298 21.9937 33.1271V31.3074C21.9937 31.2573 21.9937 31.2215 21.9937 31.2C21.9998 31.1073 21.9718 31.0155 21.9148 30.9421C21.8803 30.9024 21.8358 30.8727 21.7859 30.8561C21.722 30.8436 21.6563 30.8436 21.5925 30.8561V30.7916H22.8534V30.806C22.7887 30.8054 22.7246 30.8184 22.6653 30.8444C22.606 30.8703 22.5529 30.9085 22.5095 30.9564C22.4386 31.0957 22.4088 31.2522 22.4235 31.4077V33.0842C22.4056 33.2539 22.4433 33.4249 22.531 33.5713C22.6255 33.6339 22.7335 33.6732 22.8462 33.686V33.7504L21.5566 33.7719Z"
                fill="#21409A"
              />
              <path
                d="M25.5043 30.7486H25.5545L25.6261 31.7301H25.5616C25.5156 31.5406 25.4407 31.3594 25.3395 31.1928C25.2623 31.073 25.1562 30.9745 25.0311 30.9063C24.9059 30.8381 24.7657 30.8024 24.6231 30.8024C24.4806 30.8024 24.3403 30.8381 24.2152 30.9063C24.09 30.9745 23.984 31.073 23.9067 31.1928C23.7179 31.508 23.6257 31.8716 23.6416 32.2387C23.6238 32.6134 23.724 32.9843 23.9282 33.299C24.0182 33.4267 24.1388 33.5297 24.279 33.5986C24.4192 33.6675 24.5745 33.6999 24.7306 33.6931C24.8495 33.6978 24.9681 33.6779 25.0791 33.6348C25.19 33.5917 25.2909 33.5261 25.3754 33.4423C25.5639 33.2489 25.678 32.9952 25.6978 32.7259H25.7622C25.7383 33.0175 25.6083 33.2902 25.3969 33.4925C25.1865 33.6795 24.9115 33.7771 24.6303 33.7647C24.4335 33.7697 24.2378 33.7341 24.0554 33.6602C23.873 33.5862 23.7077 33.4755 23.57 33.3348C23.4296 33.1898 23.3199 33.0181 23.2472 32.8297C23.1746 32.6414 23.1406 32.4404 23.1473 32.2387C23.1414 31.8269 23.2955 31.4288 23.5772 31.1283C23.706 30.9821 23.8649 30.8655 24.0429 30.7864C24.221 30.7072 24.414 30.6675 24.6088 30.6698C24.8118 30.6701 25.0132 30.7064 25.2034 30.7772L25.3467 30.8345H25.4112C25.4327 30.8919 25.4757 30.8417 25.5043 30.7486Z"
                fill="#21409A"
              />
              <path
                d="M25.626 33.7719V33.7074C25.7287 33.6988 25.8262 33.6588 25.9054 33.5928C26.0258 33.4477 26.1203 33.2828 26.1848 33.1056L27.1233 30.8059H27.1591H27.2236L28.1764 33.0913C28.2409 33.2685 28.3354 33.4333 28.4558 33.5784C28.5385 33.6431 28.6379 33.6829 28.7424 33.6931V33.7575H27.4314V33.6931C27.6749 33.6931 27.7967 33.6214 27.7967 33.4781C27.7829 33.3472 27.749 33.2192 27.6964 33.0984L27.4743 32.5683H26.5072L26.2994 33.0984C26.2431 33.2128 26.209 33.3368 26.1991 33.4638C26.1974 33.4982 26.2061 33.5322 26.224 33.5616C26.2419 33.591 26.2681 33.6143 26.2994 33.6286C26.3893 33.6772 26.4911 33.6996 26.5931 33.6931V33.7575L25.626 33.7719ZM26.9872 31.3719L26.5072 32.4895H27.4314L26.9872 31.3719Z"
                fill="#21409A"
              />
              <path
                d="M29.8535 33.772V33.7075C29.9176 33.7085 29.9812 33.6964 30.0404 33.6717C30.0996 33.6471 30.153 33.6105 30.1974 33.5642C30.2681 33.4223 30.2979 33.2635 30.2834 33.1057V31.4293C30.2981 31.2737 30.2683 31.1172 30.1974 30.9779C30.1529 30.9314 30.0996 30.8941 30.0405 30.8682C29.9815 30.8424 29.9179 30.8286 29.8535 30.8275V30.763H31.1144C31.3701 30.7491 31.6264 30.7757 31.8738 30.8418C32.0132 30.8806 32.1348 30.9667 32.2177 31.0854C32.3015 31.1997 32.3467 31.3377 32.3467 31.4794C32.3518 31.5809 32.3292 31.682 32.2813 31.7716C32.2333 31.8612 32.1618 31.9361 32.0744 31.9881L31.9025 32.0669C31.8165 32.1045 31.7279 32.1356 31.6374 32.16C31.8008 32.1822 31.9601 32.228 32.1102 32.2961C32.2304 32.3583 32.3304 32.4532 32.3989 32.5698C32.4674 32.6864 32.5014 32.8201 32.4971 32.9552C32.5028 33.0863 32.4724 33.2164 32.4092 33.3313C32.3461 33.4463 32.2526 33.5417 32.1389 33.6072C32.0162 33.6816 31.8797 33.7303 31.7377 33.7505C31.5922 33.7597 31.4462 33.7597 31.3007 33.7505L29.8535 33.772ZM30.7132 30.8561V32.1242H31.0356C31.2475 32.1449 31.4601 32.0917 31.6374 31.9737C31.7063 31.9106 31.7601 31.8327 31.7948 31.7459C31.8296 31.659 31.8443 31.5655 31.838 31.4723C31.8459 31.3799 31.8319 31.2869 31.797 31.201C31.7622 31.1151 31.7075 31.0386 31.6374 30.9779C31.5784 30.9306 31.5101 30.8964 31.4368 30.8776C31.3248 30.8674 31.2121 30.8674 31.1001 30.8776L30.7132 30.8561ZM31.0929 32.2388H30.7132V33.0197C30.704 33.1365 30.704 33.2539 30.7132 33.3708C30.7198 33.4451 30.7499 33.5153 30.7992 33.5714C30.8561 33.6301 30.9257 33.6749 31.0028 33.7022C31.0799 33.7296 31.1622 33.7387 31.2434 33.729C31.3399 33.7391 31.4376 33.7275 31.5291 33.6951C31.6206 33.6627 31.7037 33.6102 31.7724 33.5416C31.8411 33.4729 31.8935 33.3898 31.9259 33.2983C31.9584 33.2067 31.9699 33.1091 31.9598 33.0126C31.9705 32.8906 31.9497 32.768 31.8995 32.6564C31.8494 32.5448 31.7715 32.4479 31.6732 32.3749C31.6311 32.3214 31.5803 32.2753 31.5228 32.2388C31.4225 32.2388 31.2935 32.2388 31.0929 32.2388Z"
                fill="#21409A"
              />
              <path
                d="M32.7188 30.8059V30.7415H33.9868V30.8059C33.9161 30.7897 33.8426 30.7897 33.7719 30.8059C33.7184 30.8267 33.6714 30.8613 33.6358 30.9062C33.5711 31.0499 33.544 31.2077 33.557 31.3647V32.7259C33.5456 32.8546 33.5456 32.9841 33.557 33.1128C33.5768 33.238 33.6402 33.3522 33.7361 33.4352C33.9163 33.5925 34.1488 33.6768 34.388 33.6716C34.5109 33.6787 34.6339 33.6607 34.7497 33.6189C34.8654 33.577 34.9715 33.5121 35.0614 33.428C35.1992 33.2564 35.2659 33.0384 35.2477 32.8191V31.3862C35.2646 31.2179 35.2242 31.0488 35.1331 30.9062C35.0986 30.8665 35.054 30.8369 35.0041 30.8203C34.9354 30.8084 34.8651 30.8084 34.7964 30.8203V30.7558H35.7277V30.8059C35.6686 30.8053 35.6099 30.8171 35.5556 30.8405C35.5014 30.864 35.4526 30.8986 35.4125 30.9421C35.3478 31.0858 35.3207 31.2435 35.3337 31.4006V32.8334C35.3516 33.0639 35.2797 33.2923 35.1331 33.471C35.0141 33.581 34.874 33.6656 34.7213 33.7198C34.5685 33.774 34.4064 33.7966 34.2447 33.7862C33.9521 33.7985 33.6619 33.7291 33.4065 33.5856C33.2978 33.5307 33.2116 33.4394 33.1629 33.3277C33.1082 33.1664 33.0839 32.9964 33.0913 32.8262V31.3934C33.105 31.2393 33.0804 31.0843 33.0196 30.9421C32.982 30.8993 32.9357 30.8651 32.8839 30.8416C32.832 30.8181 32.7757 30.806 32.7188 30.8059Z"
                fill="#21409A"
              />
              <path
                d="M35.957 33.7719V33.7074C36.0189 33.7156 36.0815 33.7156 36.1433 33.7074C36.195 33.6868 36.2414 33.655 36.2794 33.6143C36.3671 33.4678 36.4048 33.2969 36.3869 33.1271V31.3074C36.3915 31.2718 36.3915 31.2357 36.3869 31.2C36.3931 31.1073 36.365 31.0155 36.3081 30.9421C36.2751 30.9039 36.2333 30.8744 36.1863 30.8561C36.12 30.8442 36.052 30.8442 35.9857 30.8561V30.7916H37.2537V30.806C37.0818 30.806 36.9672 30.8704 36.917 30.9564C36.8462 31.0957 36.8163 31.2522 36.8311 31.4077V33.0842C36.8132 33.2539 36.8509 33.4249 36.9385 33.5713C37.033 33.6339 37.1411 33.6732 37.2537 33.686V33.7504L35.957 33.7719Z"
                fill="#21409A"
              />
              <path
                d="M37.4258 33.7719V33.7074C37.4852 33.7129 37.5451 33.7047 37.601 33.6836C37.6568 33.6625 37.7072 33.629 37.7482 33.5856C37.8379 33.4453 37.8759 33.2781 37.8556 33.1128V31.2071C37.8625 31.1132 37.8372 31.0197 37.784 30.942C37.7052 30.8708 37.6036 30.8301 37.4974 30.8274V30.7629H38.6867V30.8059C38.5599 30.8074 38.4389 30.8589 38.35 30.9492C38.2868 31.0933 38.2622 31.2513 38.2783 31.4077V33.0197C38.2588 33.1551 38.2588 33.2926 38.2783 33.428C38.3285 33.5856 38.5219 33.6716 38.8586 33.6716C38.9804 33.6774 39.1021 33.6574 39.2157 33.613C39.3293 33.5685 39.4322 33.5006 39.5177 33.4137C39.5952 33.325 39.6602 33.2262 39.7112 33.12C39.7628 33.022 39.8036 32.9187 39.8329 32.8119H39.8831L39.7971 33.7432L37.4258 33.7719Z"
                fill="#21409A"
              />
              <path
                d="M39.9551 33.7718V33.7073C40.0226 33.7101 40.0899 33.6988 40.1528 33.6741C40.2157 33.6494 40.2728 33.612 40.3205 33.564C40.3921 33.4251 40.422 33.2683 40.4064 33.1127V31.422C40.4188 31.2673 40.3917 31.112 40.3276 30.9706C40.2835 30.9206 40.2296 30.8801 40.1692 30.8518C40.1088 30.8234 40.0432 30.8078 39.9766 30.8058V30.7485H41.4094C41.8378 30.7169 42.2617 30.853 42.5915 31.1282C42.748 31.2741 42.8712 31.452 42.9528 31.6498C43.0344 31.8476 43.0724 32.0607 43.0643 32.2745C43.0772 32.604 42.976 32.9279 42.7778 33.1915C42.5905 33.4417 42.322 33.619 42.0184 33.693C41.8195 33.7434 41.6144 33.7652 41.4094 33.7575L39.9551 33.7718ZM41.1085 30.8488H40.8363V33.127C40.8279 33.22 40.8279 33.3135 40.8363 33.4064C40.8425 33.4414 40.8559 33.4748 40.8756 33.5044C40.8953 33.534 40.921 33.5592 40.9509 33.5784C41.0755 33.6623 41.2234 33.7049 41.3736 33.7002C41.5042 33.7071 41.6348 33.6878 41.7578 33.6435C41.8808 33.5992 41.9938 33.5308 42.09 33.4422C42.2389 33.2882 42.3541 33.1048 42.4281 32.9037C42.5021 32.7026 42.5334 32.4883 42.5199 32.2745C42.5326 31.9413 42.4453 31.6119 42.2691 31.3288C42.1778 31.1881 42.0552 31.0704 41.9109 30.9849C41.7715 30.8976 41.6097 30.8527 41.4452 30.856L41.1085 30.8488Z"
                fill="#21409A"
              />
              <path
                d="M47.6418 23.9999C47.6252 20.9948 47.0166 18.0223 45.8507 15.2525C44.408 11.8776 42.1498 8.91382 39.2789 6.62715C36.408 4.34048 33.0142 2.80249 29.4021 2.15124C25.7901 1.49999 22.0728 1.75586 18.5841 2.89589C15.0953 4.03592 11.9443 6.02443 9.41373 8.68291C5.54372 12.9013 3.45212 18.4512 3.57534 24.1746C3.69856 29.898 6.02707 35.3527 10.075 39.4007C14.123 43.4487 19.5778 45.7772 25.3011 45.9004C31.0245 46.0236 36.5744 43.932 40.7928 40.062C42.9499 37.9857 44.6697 35.4986 45.8507 32.7474C47.0153 29.9771 47.6239 27.0049 47.6418 23.9999ZM47.9785 23.9999C47.9811 28.7028 46.6016 33.3027 44.0114 37.228C41.4212 41.1532 37.7345 44.2307 33.4097 46.0779C29.0848 47.9251 24.3124 48.4606 19.6856 47.6177C15.0589 46.7749 10.7819 44.5909 7.38627 41.3372C5.06332 39.0988 3.20989 36.4197 1.93433 33.4566C0.676287 30.4615 0.0190597 27.2484 0 23.9999C0.0225995 20.7564 0.679724 17.5487 1.93433 14.5575C3.2119 11.5956 5.06507 8.91689 7.38627 6.67694C10.7826 3.4237 15.0596 1.23967 19.6863 0.396023C24.3131 -0.447625 29.0857 0.086269 33.4116 1.93142C37.7376 3.77656 41.4263 6.85169 44.0198 10.775C46.6133 14.6983 47.9973 19.2969 48 23.9999H47.9785Z"
                fill="url(#paint0_linear_51_257)"
              />
              <path
                d="M26.2498 26.5934V17.76L13.8057 22.209L15.5967 27.009"
                fill="url(#paint1_linear_51_257)"
              />
              <path
                d="M32.0456 8.48952C32.0465 8.30767 32.0114 8.12745 31.9423 7.95926C31.8731 7.79108 31.7713 7.63828 31.6427 7.50969C31.5141 7.38111 31.3613 7.2793 31.1931 7.21015C31.025 7.141 30.8447 7.10588 30.6629 7.10683H22.3309C22.1491 7.10588 21.9689 7.141 21.8007 7.21015C21.6325 7.2793 21.4797 7.38111 21.3511 7.50969C21.2225 7.63828 21.1207 7.79108 21.0516 7.95926C20.9824 8.12745 20.9473 8.30767 20.9483 8.48952V12.6304H32.0456V8.48952Z"
                fill="url(#paint2_linear_51_257)"
              />
              <path
                d="M26.9946 17.0292L35.2621 19.9665V16.8501C35.2621 15.0161 33.3063 13.5331 30.9063 13.5331H22.388C19.9809 13.5331 18.0322 15.0161 18.0322 16.8501V19.9164L26.0561 17.0507C26.359 16.9394 26.6917 16.9394 26.9946 17.0507V17.0292Z"
                fill="url(#paint3_linear_51_257)"
              />
              <path
                d="M37.6483 27.0233L39.4393 22.2233L26.9951 17.76V26.5934"
                fill="url(#paint4_linear_51_257)"
              />
              <path
                d="M25.827 45.1987C21.6468 45.2001 17.56 43.9618 14.0835 41.6404C10.607 39.319 7.89707 36.0188 6.29637 32.1571C4.69566 28.2954 4.27611 24.0458 5.09077 19.9457C5.90544 15.8456 7.91772 12.0791 10.8731 9.1227C13.8285 6.16629 17.5943 4.15273 21.6941 3.33668C25.794 2.52062 30.0438 2.93874 33.906 4.53813C37.7682 6.13753 41.0694 8.84636 43.3919 12.322C45.7145 15.7977 46.9542 19.8841 46.9542 24.0644C46.9466 29.666 44.7185 35.0361 40.7583 38.9977C36.798 42.9593 31.4286 45.1892 25.827 45.1987ZM25.827 3.26678C21.7179 3.26678 17.7011 4.48528 14.2845 6.76819C10.8678 9.0511 8.20491 12.2959 6.63242 16.0922C5.05992 19.8886 4.64849 24.0659 5.45014 28.0961C6.25179 32.1263 8.23052 35.8282 11.1361 38.7338C14.0417 41.6394 17.7437 43.6182 21.7738 44.4198C25.804 45.2215 29.9814 44.81 33.7777 43.2375C37.5741 41.665 40.8189 39.0021 43.1018 35.5855C45.3847 32.1689 46.6032 28.152 46.6032 24.0429C46.5899 18.5368 44.3968 13.26 40.5034 9.36659C36.6099 5.47318 31.3331 3.28002 25.827 3.26678Z"
                fill="url(#paint5_linear_51_257)"
              />
              <path
                d="M16.1055 40.7284L15.9263 41.0794C15.8778 41.1509 15.855 41.2368 15.8619 41.323C15.873 41.36 15.8923 41.394 15.9184 41.4225C15.9444 41.451 15.9765 41.4733 16.0123 41.4878C15.7687 41.366 15.5252 41.2442 15.2959 41.1152C15.3307 41.1313 15.3686 41.1396 15.4069 41.1396C15.4453 41.1396 15.4832 41.1313 15.518 41.1152C15.5915 41.0692 15.649 41.0017 15.6828 40.9218L16.0696 40.2054C16.0958 40.1624 16.1175 40.1168 16.1341 40.0693C16.1521 40.0183 16.1521 39.9627 16.1341 39.9117C16.103 39.869 16.0641 39.8325 16.0195 39.8042L16.6499 40.1338C16.7201 40.1658 16.7873 40.2042 16.8505 40.2484C16.9149 40.2876 16.9689 40.3416 17.0081 40.406C17.0382 40.4622 17.054 40.5249 17.054 40.5887C17.054 40.6524 17.0382 40.7152 17.0081 40.7714C16.9823 40.834 16.937 40.8866 16.8789 40.9214C16.8209 40.9562 16.7531 40.9715 16.6857 40.9648C16.5541 40.9474 16.4274 40.9036 16.3132 40.8358L16.1055 40.7284ZM16.1055 40.6926L16.2129 40.7499C16.3026 40.8063 16.4084 40.8315 16.5138 40.8215C16.5624 40.809 16.6075 40.7857 16.6459 40.7535C16.6843 40.7213 16.7151 40.6809 16.7359 40.6352C16.7661 40.583 16.782 40.5237 16.782 40.4633C16.782 40.4029 16.7661 40.3436 16.7359 40.2914C16.7157 40.2598 16.6916 40.231 16.6643 40.2054L16.5353 40.1194L16.478 40.0693L16.1055 40.6926Z"
                fill="#21409A"
              />
              <path
                d="M17.3727 41.3373L17.2151 41.6955C17.173 41.7693 17.1554 41.8546 17.1649 41.9391C17.1794 41.9757 17.2016 42.0088 17.23 42.036C17.2585 42.0632 17.2925 42.0839 17.3297 42.0967L16.6133 41.7743C16.6483 41.7895 16.6861 41.7973 16.7243 41.7973C16.7625 41.7973 16.8003 41.7895 16.8354 41.7743C16.9057 41.7252 16.9584 41.6549 16.9858 41.5737L17.3297 40.8573C17.3728 40.7838 17.3904 40.6982 17.3798 40.6137C17.3677 40.5801 17.3487 40.5493 17.324 40.5234C17.2994 40.4975 17.2696 40.477 17.2366 40.4633L17.7524 40.6925L17.9745 40.7856C18.0451 40.8216 18.1102 40.8675 18.1679 40.9218C18.2287 40.9682 18.2722 41.0336 18.2917 41.1075C18.3112 41.1815 18.3054 41.2598 18.2754 41.3301C18.254 41.3854 18.218 41.4339 18.1714 41.4704C18.1247 41.507 18.0691 41.5303 18.0103 41.5379C17.9345 41.5513 17.8569 41.5513 17.781 41.5379C17.8209 41.568 17.8529 41.6073 17.8742 41.6525C17.8785 41.7169 17.8785 41.7815 17.8742 41.8459C17.8877 42.0054 17.9141 42.1635 17.953 42.3188C17.9612 42.3493 17.9756 42.3777 17.9953 42.4024C18.0151 42.427 18.0397 42.4474 18.0676 42.4621L17.6879 42.2686C17.6879 42.2686 17.6879 42.2113 17.6879 42.1827C17.6879 42.154 17.6879 42.068 17.6879 41.9821C17.6826 41.8088 17.6512 41.6373 17.5948 41.4734C17.5613 41.4185 17.511 41.3759 17.4515 41.3516L17.3727 41.3373ZM17.3727 41.3373H17.4157L17.5876 41.4018C17.6435 41.4198 17.7037 41.4198 17.7596 41.4018C17.8103 41.387 17.8568 41.3605 17.8954 41.3244C17.934 41.2883 17.9635 41.2436 17.9816 41.194C18.0118 41.1417 18.0277 41.0824 18.0277 41.0221C18.0277 40.9617 18.0118 40.9024 17.9816 40.8501C17.9162 40.7765 17.832 40.7221 17.7381 40.6925H17.6879L17.3727 41.3373Z"
                fill="#21409A"
              />
              <path
                d="M19.0928 41.5522L18.8205 42.3259C18.7987 42.4081 18.7987 42.4945 18.8205 42.5767C18.8589 42.6434 18.9199 42.6942 18.9925 42.7199L18.2402 42.4549C18.2751 42.4709 18.3129 42.4792 18.3513 42.4792C18.3896 42.4792 18.4275 42.4709 18.4623 42.4549C18.5297 42.4028 18.5776 42.3297 18.5984 42.2471L18.8778 41.4734C18.9143 41.3952 18.9267 41.3079 18.9137 41.2226C18.8987 41.1891 18.877 41.1591 18.8499 41.1345C18.8228 41.1098 18.7908 41.091 18.7561 41.0793L19.4725 41.3301C19.4399 41.3152 19.4044 41.3076 19.3686 41.3076C19.3328 41.3076 19.2973 41.3152 19.2647 41.3301C19.1856 41.3843 19.1254 41.462 19.0928 41.5522Z"
                fill="#21409A"
              />
              <path
                d="M19.544 41.3373L20.2604 41.5594C20.2176 41.5537 20.1742 41.5537 20.1314 41.5594C20.1041 41.5617 20.0783 41.5728 20.0577 41.5908C20.0371 41.6088 20.0228 41.6329 20.0168 41.6597C20.009 41.7119 20.009 41.765 20.0168 41.8173C20.0168 42.1325 20.0741 42.4549 20.1099 42.7701C20.2962 42.5552 20.4753 42.3259 20.6472 42.1038C20.7025 42.0403 20.7462 41.9676 20.7762 41.8889C20.7852 41.8674 20.7892 41.844 20.7876 41.8207C20.7861 41.7974 20.7791 41.7747 20.7673 41.7546C20.7555 41.7344 20.7391 41.7173 20.7195 41.7045C20.6999 41.6918 20.6776 41.6838 20.6544 41.6812L21.1487 41.8101C21.0789 41.8011 21.0081 41.8163 20.9481 41.8531C20.8614 41.9315 20.7823 42.0178 20.7117 42.111C20.4681 42.4262 20.2102 42.7343 19.9523 43.0424H19.895C19.8448 42.634 19.7947 42.2256 19.7589 41.8173C19.7563 41.7046 19.7345 41.5931 19.6944 41.4877C19.6944 41.4376 19.6156 41.4018 19.5225 41.3659L19.544 41.3373Z"
                fill="#21409A"
              />
              <path
                d="M22.3021 43.5725C22.0299 43.5295 21.7648 43.4794 21.4997 43.422C21.5515 43.4342 21.6055 43.4342 21.6573 43.422C21.682 43.417 21.7047 43.4047 21.7225 43.3869C21.7403 43.3691 21.7525 43.3464 21.7576 43.3217C21.7611 43.2621 21.7611 43.2023 21.7576 43.1426L21.6931 42.8632L21.1702 42.7558L21.077 42.8847C21.0232 42.9597 20.9753 43.0387 20.9337 43.1211C20.9337 43.2214 20.9337 43.2931 21.0914 43.3361L20.5469 43.2071C20.5885 43.2111 20.6305 43.2061 20.67 43.1925C20.7095 43.1789 20.7457 43.157 20.7761 43.1283C20.8776 43.0431 20.9669 42.9443 21.0412 42.8346L21.6931 41.9104H21.7505C21.8364 42.3259 21.9296 42.7486 22.0299 43.1641C22.0487 43.2607 22.0851 43.353 22.1373 43.4364C22.1863 43.4912 22.2516 43.5288 22.3236 43.5438L22.3021 43.5725ZM21.6645 42.7916C21.6215 42.5838 21.5857 42.3761 21.5427 42.1755L21.1917 42.6841L21.6645 42.7916Z"
                fill="#21409A"
              />
              <path
                d="M22.9253 43.3218L23.0829 42.1899C22.9248 42.1551 22.7611 42.1551 22.6029 42.1899C22.4962 42.2481 22.4165 42.3458 22.3809 42.4621L22.4668 42.0609C22.9827 42.1469 23.4985 42.2185 24.0143 42.2687V42.677C24.0137 42.6157 23.9999 42.5552 23.974 42.4995C23.948 42.4439 23.9105 42.3945 23.8638 42.3546C23.7222 42.2788 23.5657 42.2348 23.4053 42.2257L23.2621 43.3505C23.229 43.4308 23.229 43.5209 23.2621 43.6012C23.2856 43.6311 23.3148 43.6559 23.348 43.6744C23.3812 43.6928 23.4177 43.7045 23.4555 43.7087C23.1904 43.7087 22.9253 43.6442 22.6674 43.6012C22.7048 43.6075 22.743 43.6063 22.7799 43.5977C22.8168 43.589 22.8516 43.5732 22.8824 43.5511C22.9156 43.4794 22.9304 43.4006 22.9253 43.3218Z"
                fill="#21409A"
              />
              <path
                d="M25.3257 42.3475C25.3257 42.4693 25.3257 42.5982 25.3257 42.72C25.3198 42.6236 25.276 42.5335 25.2039 42.4693C25.1081 42.3943 24.9887 42.3562 24.8672 42.3618H24.6021L24.5591 43.0281H24.6308C24.6699 43.0424 24.712 43.0468 24.7532 43.0408C24.7944 43.0349 24.8335 43.0187 24.867 42.9938C24.9004 42.9689 24.9271 42.9361 24.9446 42.8983C24.9622 42.8605 24.97 42.8189 24.9675 42.7773C24.9675 42.9779 24.9675 43.1785 24.9675 43.3791C24.9686 43.2959 24.9408 43.2148 24.8887 43.1499C24.8254 43.0948 24.7432 43.0665 24.6594 43.0711H24.5878V43.3218C24.5612 43.4349 24.5612 43.5526 24.5878 43.6657C24.6308 43.7708 24.7454 43.8281 24.9317 43.8376C25.0557 43.8534 25.1815 43.8283 25.2899 43.766C25.3852 43.6856 25.4488 43.5738 25.469 43.4508C25.469 43.6012 25.469 43.7445 25.469 43.8949C24.9818 43.8949 24.4946 43.8519 24.0361 43.809C24.0728 43.815 24.1104 43.8129 24.1463 43.803C24.1822 43.7932 24.2154 43.7756 24.2439 43.7516C24.2961 43.6816 24.3215 43.5952 24.3155 43.5081L24.38 42.6913C24.4068 42.6124 24.4068 42.5268 24.38 42.4478C24.3589 42.4177 24.3311 42.393 24.2987 42.3756C24.2664 42.3582 24.2305 42.3486 24.1937 42.3475C24.5018 42.3116 24.9102 42.3403 25.3257 42.3475Z"
                fill="#21409A"
              />
              <path
                d="M27.5819 43.3647C27.5819 43.5152 27.5819 43.6656 27.5819 43.8161C27.0948 43.8519 26.6004 43.8734 26.1133 43.8806C26.1503 43.8818 26.1872 43.8754 26.2217 43.8619C26.2562 43.8483 26.2876 43.8279 26.3139 43.8018C26.3555 43.7278 26.373 43.6426 26.364 43.5582V42.7343C26.3727 42.6391 26.3445 42.5442 26.2852 42.4692C26.2361 42.431 26.1755 42.4108 26.1133 42.4119H26.8297C26.7604 42.4159 26.6946 42.4437 26.6434 42.4907C26.6007 42.5695 26.5831 42.6595 26.5933 42.7486V43.3934C26.5873 43.5085 26.6069 43.6235 26.6506 43.7301C26.7079 43.8304 26.8297 43.8734 27.0088 43.8662C27.1359 43.872 27.2607 43.8312 27.3598 43.7516C27.4819 43.6569 27.5617 43.5179 27.5819 43.3647Z"
                fill="#21409A"
              />
              <path
                d="M28.1047 42.5982L28.1835 43.415C28.1835 43.5024 28.2111 43.5877 28.2623 43.6585C28.2929 43.681 28.3277 43.6971 28.3646 43.7057C28.4016 43.7144 28.4399 43.7154 28.4772 43.7087C28.2193 43.7087 27.9543 43.766 27.6892 43.7803C27.7656 43.7766 27.8376 43.7432 27.8898 43.6872C27.9161 43.6057 27.9161 43.518 27.8898 43.4364L27.8181 42.6197C27.8162 42.5336 27.7915 42.4496 27.7465 42.3761C27.7194 42.3523 27.6873 42.3348 27.6526 42.3249C27.618 42.315 27.5815 42.3129 27.5459 42.3188L28.2623 42.2472C28.226 42.2502 28.1908 42.2607 28.1587 42.278C28.1267 42.2952 28.0985 42.3189 28.076 42.3475C28.0573 42.4319 28.0674 42.5202 28.1047 42.5982Z"
                fill="#21409A"
              />
              <path
                d="M29.9824 42.1469C29.8677 42.6269 29.7459 43.0997 29.6098 43.5797C29.3304 43.1857 29.0582 42.7773 28.8074 42.369L28.9364 43.329C28.9368 43.4154 28.9672 43.4989 29.0224 43.5654C29.0531 43.5875 29.0879 43.6034 29.1248 43.612C29.1617 43.6206 29.1999 43.6218 29.2373 43.6155L28.657 43.7015C28.7323 43.6902 28.801 43.6521 28.8504 43.594C28.8762 43.5124 28.8762 43.4249 28.8504 43.3433L28.7429 42.5337C28.7451 42.4382 28.7148 42.3448 28.657 42.2687C28.6283 42.2451 28.595 42.2278 28.5592 42.2179C28.5234 42.2081 28.4859 42.2058 28.4492 42.2113L28.9435 42.1397C29.1656 42.5122 29.3949 42.8561 29.66 43.2358C29.7674 42.8131 29.8749 42.3905 29.968 41.9749L30.4337 41.8746C30.397 41.8812 30.362 41.8954 30.3311 41.9164C30.3003 41.9374 30.2742 41.9647 30.2546 41.9964C30.232 42.0785 30.232 42.1651 30.2546 42.2472L30.4265 43.0496C30.4313 43.1355 30.4669 43.2169 30.5268 43.2788C30.5939 43.3177 30.673 43.3304 30.7489 43.3146L29.9752 43.4722C30.0135 43.4672 30.0504 43.4544 30.0836 43.4347C30.1169 43.415 30.1458 43.3888 30.1686 43.3576C30.1949 43.2761 30.1949 43.1884 30.1686 43.1069C30.0898 42.7988 30.0468 42.4764 29.9824 42.1469Z"
                fill="#21409A"
              />
              <path
                d="M31.1574 42.0608C31.2291 42.3259 31.2936 42.591 31.3652 42.856C31.3763 42.9397 31.414 43.0175 31.4727 43.0781C31.5078 43.0929 31.5456 43.1005 31.5837 43.1005C31.6218 43.1005 31.6596 43.0929 31.6948 43.0781L30.921 43.2716C30.9582 43.2664 30.9938 43.2528 31.0249 43.2317C31.0559 43.2105 31.0817 43.1825 31.1001 43.1498C31.1291 43.0687 31.1291 42.9801 31.1001 42.899L30.9139 42.0966C30.9027 42.013 30.8651 41.9352 30.8064 41.8745C30.7399 41.8471 30.6652 41.8471 30.5986 41.8745L31.3151 41.6954C31.2801 41.7042 31.2474 41.7202 31.219 41.7425C31.1906 41.7647 31.1672 41.7926 31.1503 41.8244C31.1301 41.9023 31.1326 41.9843 31.1574 42.0608Z"
                fill="#21409A"
              />
              <path
                d="M32.4248 42.5552L32.0881 41.4734C31.9318 41.5077 31.7849 41.5762 31.6583 41.674C31.5861 41.7732 31.5553 41.8965 31.5723 42.0179L31.4863 41.6167C31.9878 41.4734 32.4893 41.3158 32.9836 41.1367L33.1413 41.5236C33.0815 41.4137 32.9813 41.3314 32.8618 41.2943C32.6977 41.2901 32.5344 41.3194 32.3819 41.3803C32.5036 41.7385 32.6183 42.0967 32.7329 42.4621C32.7492 42.5467 32.7949 42.6228 32.8618 42.677C32.897 42.6918 32.9348 42.6994 32.9729 42.6994C33.011 42.6994 33.0488 42.6918 33.0839 42.677L32.2816 42.9851C32.3546 42.9643 32.4165 42.9153 32.4535 42.849C32.4816 42.751 32.4714 42.6459 32.4248 42.5552Z"
                fill="#21409A"
              />
              <path
                d="M34.2019 40.6495C34.2593 40.7642 34.3166 40.8716 34.3667 40.9791C34.3166 40.8946 34.2378 40.831 34.1446 40.8C34.0222 40.7844 33.8979 40.8043 33.7864 40.8573L33.5428 40.9576L33.7864 41.5809H33.8509C33.9799 41.5307 34.0515 41.4734 34.073 41.4089C34.0897 41.3431 34.0897 41.2742 34.073 41.2083C34.1446 41.3946 34.2234 41.5737 34.2951 41.76C34.2595 41.6827 34.1989 41.6196 34.1231 41.5809C34.0422 41.5513 33.9534 41.5513 33.8724 41.5809H33.8079L33.901 41.8245C33.9333 41.9335 33.9896 42.0338 34.0658 42.1182C34.1518 42.197 34.2879 42.197 34.4598 42.1182C34.5822 42.0799 34.6881 42.0017 34.7607 41.8961C34.8029 41.7804 34.8029 41.6536 34.7607 41.5379L34.9255 41.9463C34.467 42.154 34.0013 42.3403 33.5357 42.5051C33.5728 42.4947 33.6074 42.4766 33.637 42.4519C33.6667 42.4272 33.6907 42.3965 33.7076 42.3618C33.7209 42.2812 33.7084 42.1984 33.6718 42.1254L33.3852 41.3588C33.3634 41.2767 33.3157 41.2038 33.2491 41.151C33.2157 41.1346 33.1789 41.126 33.1416 41.126C33.1044 41.126 33.0676 41.1346 33.0342 41.151C33.4282 40.9719 33.8222 40.8358 34.2019 40.6495Z"
                fill="#21409A"
              />
              <path
                d="M35.1044 41.5522L34.7606 40.8357C34.7401 40.7886 34.7162 40.7431 34.6889 40.6996C34.6573 40.6581 34.6113 40.63 34.56 40.6208C34.5082 40.6081 34.4541 40.6081 34.4023 40.6208L34.9898 40.3486C35.1074 40.2867 35.2295 40.234 35.3552 40.191C35.5309 40.1263 35.7239 40.1263 35.8997 40.191C36.0779 40.262 36.2252 40.394 36.3152 40.5635C36.3862 40.6873 36.4186 40.8295 36.4083 40.9719C36.3941 41.1061 36.3362 41.2319 36.2435 41.3301C36.1531 41.4248 36.0463 41.5025 35.9283 41.5593L35.0256 41.9892C35.0622 41.9752 35.0956 41.9541 35.1239 41.927C35.1522 41.9 35.1748 41.8675 35.1904 41.8316C35.1959 41.7312 35.1654 41.6321 35.1044 41.5522ZM34.8609 40.4131L35.3409 41.4089C35.3982 41.5307 35.4483 41.5952 35.5128 41.6166C35.5654 41.6331 35.6213 41.6358 35.6752 41.6246C35.7292 41.6133 35.7793 41.5883 35.8209 41.5522C35.9087 41.5147 35.9856 41.4557 36.0445 41.3805C36.1033 41.3054 36.1423 41.2166 36.1576 41.1223C36.1788 40.9619 36.1487 40.7989 36.0716 40.6566C36.0236 40.5582 35.9554 40.471 35.8714 40.4007C35.7875 40.3303 35.6897 40.2784 35.5844 40.2483C35.4913 40.2218 35.3937 40.2146 35.2977 40.2269C35.2016 40.2392 35.1091 40.2708 35.0256 40.3199L34.8609 40.4131Z"
                fill="#21409A"
              />
            </g>
            <defs>
              <linearGradient
                id="paint0_linear_51_257"
                x1="0"
                y1="23.9999"
                x2="49.44"
                y2="23.9999"
                gradientUnits="userSpaceOnUse"
              >
                <stop stop-color="#21409A" />
                <stop offset="0.31" stop-color="#27AAE1" />
                <stop offset="0.54" stop-color="#27AAE1" />
                <stop offset="0.83" stop-color="#21409A" />
              </linearGradient>
              <linearGradient
                id="paint1_linear_51_257"
                x1="20.0313"
                y1="17.76"
                x2="20.0313"
                y2="27.0233"
                gradientUnits="userSpaceOnUse"
              >
                <stop offset="0.06" stop-color="#21409A" />
                <stop offset="1" stop-color="#27AAE1" />
              </linearGradient>
              <linearGradient
                id="paint2_linear_51_257"
                x1="26.4933"
                y1="7.10683"
                x2="26.4933"
                y2="12.6304"
                gradientUnits="userSpaceOnUse"
              >
                <stop offset="0.06" stop-color="#21409A" />
                <stop offset="1" stop-color="#27AAE1" />
              </linearGradient>
              <linearGradient
                id="paint3_linear_51_257"
                x1="26.6436"
                y1="13.5331"
                x2="26.6436"
                y2="19.9665"
                gradientUnits="userSpaceOnUse"
              >
                <stop offset="0.06" stop-color="#21409A" />
                <stop offset="1" stop-color="#27AAE1" />
              </linearGradient>
              <linearGradient
                id="paint4_linear_51_257"
                x1="33.2208"
                y1="17.76"
                x2="33.2208"
                y2="27.0233"
                gradientUnits="userSpaceOnUse"
              >
                <stop offset="0.06" stop-color="#21409A" />
                <stop offset="1" stop-color="#27AAE1" />
              </linearGradient>
              <linearGradient
                id="paint5_linear_51_257"
                x1="25.8271"
                y1="2.93723"
                x2="25.8271"
                y2="45.1987"
                gradientUnits="userSpaceOnUse"
              >
                <stop offset="0.06" stop-color="#21409A" />
                <stop offset="1" stop-color="#27AAE1" />
              </linearGradient>
              <clipPath id="clip0_51_257">
                <rect width="47.9785" height="48" fill="white" />
              </clipPath>
            </defs>
          </svg>