<svg width="26" height="26" viewBox="0 0 26 26" fill="none" xmlns="http://www.w3.org/2000/svg">
<g id="mdi:thumbs-up">
<path id="Vector" d="M24.9173 10.8333C24.9173 10.2587 24.689 9.70759 24.2827 9.30126C23.8764 8.89493 23.3253 8.66666 22.7507 8.66666H15.904L16.944 3.71583C16.9657 3.60749 16.9765 3.48833 16.9765 3.36916C16.9765 2.92499 16.7923 2.51333 16.4998 2.22083L15.3515 1.08333L8.22315 8.21166C7.82232 8.61249 7.58398 9.15416 7.58398 9.74999V20.5833C7.58398 21.158 7.81226 21.7091 8.21859 22.1154C8.62492 22.5217 9.17602 22.75 9.75065 22.75H19.5007C20.3998 22.75 21.169 22.2083 21.494 21.4283L24.7657 13.7908C24.8632 13.5417 24.9173 13.2817 24.9173 13V10.8333ZM1.08398 22.75H5.41732V9.74999H1.08398V22.75Z" fill="white"/>
</g>
</svg>
