<svg width="28" height="28" viewBox="0 0 28 28" fill="none" xmlns="http://www.w3.org/2000/svg">
<g id="mdi:idea">
<path id="Vector" d="M14.0007 2.33334C11.8347 2.33334 9.75749 3.19376 8.22595 4.7253C6.6944 6.25685 5.83398 8.33408 5.83398 10.5C5.83398 13.2767 7.22232 15.715 9.33398 17.1967V19.8333C9.33398 20.1428 9.4569 20.4395 9.67569 20.6583C9.89449 20.8771 10.1912 21 10.5007 21H17.5007C17.8101 21 18.1068 20.8771 18.3256 20.6583C18.5444 20.4395 18.6673 20.1428 18.6673 19.8333V17.1967C20.779 15.715 22.1673 13.2767 22.1673 10.5C22.1673 8.33408 21.3069 6.25685 19.7754 4.7253C18.2438 3.19376 16.1666 2.33334 14.0007 2.33334ZM10.5007 24.5C10.5007 24.8094 10.6236 25.1062 10.8424 25.325C11.0612 25.5438 11.3579 25.6667 11.6673 25.6667H16.334C16.6434 25.6667 16.9402 25.5438 17.1589 25.325C17.3777 25.1062 17.5007 24.8094 17.5007 24.5V23.3333H10.5007V24.5Z" fill="white"/>
</g>
</svg>
