<svg width="30" height="30" viewBox="0 0 30 30" fill="none" xmlns="http://www.w3.org/2000/svg">
<g id="mingcute:safety-certificate-fill" clip-path="url(#clip0_67_218)">
<g id="Group">
<path id="Vector" fill-rule="evenodd" clip-rule="evenodd" d="M14.1225 2.74373C14.6158 2.55917 15.1547 2.53511 15.6625 2.67498L15.8775 2.74373L24.6275 6.02498C25.0712 6.19134 25.4584 6.48036 25.7441 6.85836C26.0298 7.23635 26.2022 7.68776 26.2413 8.15998L26.25 8.36623V15.07C26.25 17.0955 25.703 19.0835 24.667 20.824C23.631 22.5645 22.1442 23.993 20.3638 24.9587L20.0312 25.1325L15.8387 27.2287C15.6079 27.344 15.3558 27.4104 15.0981 27.4237C14.8404 27.437 14.5828 27.397 14.3412 27.3062L14.1613 27.2287L9.96875 25.1325C8.15701 24.2266 6.62347 22.8483 5.53001 21.1432C4.43654 19.4381 3.82373 17.4694 3.75625 15.445L3.75 15.07V8.36623C3.75001 7.89264 3.88453 7.4288 4.13792 7.02869C4.3913 6.62859 4.75312 6.30869 5.18125 6.10623L5.3725 6.02498L14.1225 2.74373ZM19.2912 10.7862L13.5438 16.5337L11.3338 14.3237C11.0992 14.0893 10.7811 13.9577 10.4496 13.9579C10.118 13.958 9.80001 14.0898 9.56563 14.3244C9.33124 14.5589 9.19963 14.877 9.19975 15.2085C9.19986 15.5401 9.3317 15.8581 9.56625 16.0925L12.5713 19.0975C12.6989 19.2252 12.8505 19.3266 13.0174 19.3957C13.1843 19.4648 13.3631 19.5004 13.5438 19.5004C13.7244 19.5004 13.9032 19.4648 14.0701 19.3957C14.237 19.3266 14.3886 19.2252 14.5162 19.0975L21.0588 12.5537C21.1781 12.4384 21.2734 12.3005 21.3389 12.148C21.4044 11.9955 21.4389 11.8315 21.4403 11.6655C21.4418 11.4995 21.4101 11.3349 21.3473 11.1813C21.2844 11.0277 21.1916 10.8881 21.0742 10.7707C20.9569 10.6534 20.8173 10.5606 20.6637 10.4977C20.5101 10.4349 20.3455 10.4032 20.1795 10.4047C20.0135 10.4061 19.8495 10.4406 19.697 10.5061C19.5445 10.5716 19.4066 10.6668 19.2912 10.7862Z" fill="white"/>
</g>
</g>
<defs>
<clipPath id="clip0_67_218">
<rect width="30" height="30" fill="white"/>
</clipPath>
</defs>
</svg>
