<svg width="27" height="28" viewBox="0 0 27 28" fill="none" xmlns="http://www.w3.org/2000/svg">
<g id="Group 2047">
<rect id="Rectangle 45" width="26.7967" height="27.3436" fill="#00609E"/>
<g id="Group 2046">
<g id="Group 2043">
<path id="Vector" d="M20.1044 12.8184H18.2398C17.9758 10.5846 16.2043 8.81303 13.9704 8.54906V6.68445C13.9704 6.61731 13.9155 6.56238 13.8483 6.56238H12.9328C12.8657 6.56238 12.8108 6.61731 12.8108 6.68445V8.54906C10.5769 8.81303 8.80534 10.5846 8.54137 12.8184H6.67676C6.60962 12.8184 6.55469 12.8734 6.55469 12.9405V13.856C6.55469 13.9232 6.60962 13.9781 6.67676 13.9781H8.54137C8.80534 16.212 10.5769 17.9835 12.8108 18.2475V20.1121C12.8108 20.1792 12.8657 20.2342 12.9328 20.2342H13.8483C13.9155 20.2342 13.9704 20.1792 13.9704 20.1121V18.2475C16.2043 17.9835 17.9758 16.212 18.2398 13.9781H20.1044C20.1715 13.9781 20.2265 13.9232 20.2265 13.856V12.9405C20.2265 12.8734 20.1715 12.8184 20.1044 12.8184ZM13.3906 17.1214C11.3337 17.1214 9.66746 15.4551 9.66746 13.3983C9.66746 11.3414 11.3337 9.67515 13.3906 9.67515C15.4475 9.67515 17.1137 11.3414 17.1137 13.3983C17.1137 15.4551 15.4475 17.1214 13.3906 17.1214Z" fill="white"/>
<path id="Vector_2" d="M13.3896 11.5673C12.8998 11.5673 12.4421 11.7565 12.0957 12.1044C11.7493 12.4508 11.5586 12.9086 11.5586 13.3984C11.5586 13.8882 11.7493 14.3459 12.0957 14.6923C12.4421 15.0371 12.9014 15.2294 13.3896 15.2294C13.8779 15.2294 14.3372 15.0387 14.6836 14.6923C15.0284 14.3459 15.2207 13.8866 15.2207 13.3984C15.2207 12.9101 15.0299 12.4508 14.6836 12.1044C14.3372 11.7565 13.8794 11.5673 13.3896 11.5673Z" fill="white"/>
</g>
</g>
</g>
</svg>
