<svg width="27" height="28" viewBox="0 0 27 28" fill="none" xmlns="http://www.w3.org/2000/svg">
<g id="Group 2065">
<g id="Group 2047">
<rect id="Rectangle 45" width="26.7967" height="27.3436" fill="#00609E"/>
</g>
<g id="feEye0">
<g id="Group 2064">
<g id="feEye1">
<path id="feEye2" fill-rule="evenodd" clip-rule="evenodd" d="M6 13.6C6.6615 10.4052 9.5441 8 13 8C16.4559 8 19.3385 10.4052 20 13.6C19.3385 16.7948 16.4559 19.2 13 19.2C9.5441 19.2 6.6615 16.7948 6 13.6ZM13 17.1C13.9283 17.1 14.8185 16.7313 15.4749 16.0749C16.1313 15.4185 16.5 14.5283 16.5 13.6C16.5 12.6717 16.1313 11.7815 15.4749 11.1251C14.8185 10.4687 13.9283 10.1 13 10.1C12.0717 10.1 11.1815 10.4687 10.5251 11.1251C9.86875 11.7815 9.5 12.6717 9.5 13.6C9.5 14.5283 9.86875 15.4185 10.5251 16.0749C11.1815 16.7313 12.0717 17.1 13 17.1ZM13 15.7C13.557 15.7 14.0911 15.4788 14.4849 15.0849C14.8788 14.6911 15.1 14.157 15.1 13.6C15.1 13.043 14.8788 12.5089 14.4849 12.1151C14.0911 11.7212 13.557 11.5 13 11.5C12.443 11.5 11.9089 11.7212 11.5151 12.1151C11.1212 12.5089 10.9 13.043 10.9 13.6C10.9 14.157 11.1212 14.6911 11.5151 15.0849C11.9089 15.4788 12.443 15.7 13 15.7Z" fill="white"/>
</g>
</g>
</g>
</g>
</svg>
